<?xml version="1.0" encoding="UTF-8" standalone="no"?><!DOCTYPE svg PUBLIC "-//W3C//DTD SVG 1.1//EN" "http://www.w3.org/Graphics/SVG/1.1/DTD/svg11.dtd"><svg width="100%" height="100%" viewBox="0 0 520 520" version="1.1" xmlns="http://www.w3.org/2000/svg" xmlns:xlink="http://www.w3.org/1999/xlink" xml:space="preserve" xmlns:serif="http://www.serif.com/" style="fill-rule:evenodd;clip-rule:evenodd;stroke-linejoin:round;stroke-miterlimit:2;"><rect id="Artboard2" x="0" y="0" width="520" height="520" style="fill:none;"/><path d="M509.5,248.791l-202.563,-0l175.416,-101.28l-11.199,-19.418l-175.433,101.284l101.279,-175.428l-19.411,-11.21l-101.28,175.419l-0,-202.556l-22.427,0l0,0.034c-134.51,0.691 -243.382,109.77 -243.382,244.364c0,134.531 108.876,243.677 243.389,244.365l0,0.033l22.427,-0l-0,-202.547l101.273,175.414l19.411,-11.21l-101.284,-175.436l175.431,101.289l11.213,-19.417l-175.42,-101.278l202.56,0l-0,-22.422Z" style="fill:#fff;fill-rule:nonzero;"/></svg>